<svg width="200" height="200" viewBox="0 0 200 200" xmlns="http://www.w3.org/2000/svg">
  <!-- Background circle -->
  <circle cx="100" cy="100" r="95" fill="#02569B" opacity="0.1"/>
  
  <!-- Main face outline -->
  <circle cx="100" cy="100" r="70" fill="none" stroke="#02569B" stroke-width="4"/>
  
  <!-- Left eye -->
  <circle cx="80" cy="85" r="8" fill="#02569B"/>
  
  <!-- Right eye -->
  <circle cx="120" cy="85" r="8" fill="#02569B"/>
  
  <!-- Smile curve -->
  <path d="M 70 110 Q 100 130 130 110" fill="none" stroke="#02569B" stroke-width="4" stroke-linecap="round"/>
  
  <!-- Brain/neural network pattern on left side -->
  <g opacity="0.6">
    <circle cx="45" cy="70" r="3" fill="#0175C2"/>
    <circle cx="50" cy="85" r="3" fill="#0175C2"/>
    <circle cx="40" cy="100" r="3" fill="#0175C2"/>
    <circle cx="55" cy="115" r="3" fill="#0175C2"/>
    <line x1="45" y1="70" x2="50" y2="85" stroke="#0175C2" stroke-width="1.5"/>
    <line x1="50" y1="85" x2="40" y2="100" stroke="#0175C2" stroke-width="1.5"/>
    <line x1="40" y1="100" x2="55" y2="115" stroke="#0175C2" stroke-width="1.5"/>
    <line x1="45" y1="70" x2="40" y2="100" stroke="#0175C2" stroke-width="1"/>
  </g>
  
  <!-- Data/analytics pattern on right side -->
  <g opacity="0.6">
    <rect x="145" y="75" width="4" height="15" fill="#FF6F00" rx="2"/>
    <rect x="152" y="65" width="4" height="25" fill="#FF6F00" rx="2"/>
    <rect x="159" y="70" width="4" height="20" fill="#FF6F00" rx="2"/>
  </g>
  
  <!-- EmotionSense text -->
  <text x="100" y="180" font-family="Arial, sans-serif" font-size="18" font-weight="bold" fill="#02569B" text-anchor="middle">EmotionSense</text>
</svg>
