<svg width="20" height="20" viewBox="0 0 20 20" xmlns="http://www.w3.org/2000/svg">
  <path d="M 10 2 C 5.6 2 2 5.6 2 10 C 2 13.4 4.2 16.3 7.3 17.3 C 7.7 17.4 7.9 17.1 7.9 16.9 V 15.4 C 5.7 15.9 5.2 14.3 5.2 14.3 C 4.9 13.5 4.3 13.2 4.3 13.2 C 3.5 12.7 4.4 12.7 4.4 12.7 C 5.3 12.8 5.7 13.6 5.7 13.6 C 6.5 15 7.8 14.6 8 14.4 C 8.1 13.8 8.3 13.4 8.6 13.2 C 6.9 13 5.1 12.3 5.1 9.5 C 5.1 8.7 5.4 8.1 5.8 7.6 C 5.7 7.4 5.4 6.6 5.9 5.5 C 5.9 5.5 6.6 5.3 7.9 6.2 C 8.6 6 9.3 5.9 10 5.9 C 10.7 5.9 11.4 6 12.1 6.2 C 13.4 5.3 14.1 5.5 14.1 5.5 C 14.6 6.6 14.3 7.4 14.2 7.6 C 14.6 8.1 14.9 8.7 14.9 9.5 C 14.9 12.3 13.1 13 11.4 13.2 C 11.7 13.5 12 14 12 14.7 V 16.9 C 12 17.1 12.2 17.4 12.6 17.3 C 15.8 16.3 18 13.4 18 10 C 18 5.6 14.4 2 10 2 Z" fill="#333"/>
</svg>
